<svg xmlns="http://www.w3.org/2000/svg" width="175" height="34" viewBox="0 0 175 34" fill="none">
<path fill-rule="evenodd" clip-rule="evenodd" d="M12.7958 3.8297C11.082 4.34737 9.48927 5.20325 8.11177 6.34679C7.53469 5.36291 6.61652 4.62508 5.53144 4.27321C7.24439 2.73229 9.25844 1.56354 11.4462 0.840746C13.634 0.117996 15.948 -0.143045 18.2418 0.0742051C20.5356 0.291413 22.7595 0.982121 24.7727 2.1027C25.2821 2.38625 25.7751 2.69575 26.2502 3.02962C26.2664 3.02258 26.2827 3.01566 26.2991 3.00887C26.9157 2.75354 27.5941 2.68675 28.2486 2.81695C28.9032 2.9472 29.5044 3.26858 29.9762 3.74045C30.4481 4.21233 30.7694 4.81354 30.8996 5.46804C31.0297 6.12254 30.9628 6.80096 30.7074 7.41741C30.4519 8.03391 30.0194 8.56079 29.4644 8.93146C28.9095 9.30216 28.2571 9.49996 27.5898 9.49987C27.1467 9.49987 26.708 9.41258 26.2986 9.24304C25.8893 9.07346 25.5174 8.82496 25.2041 8.51166C24.8908 8.19833 24.6423 7.82641 24.4728 7.41708C24.3033 7.00775 24.2161 6.56904 24.2161 6.126C24.2161 5.95295 24.2294 5.78091 24.2556 5.61133C23.9024 5.36871 23.5371 5.14275 23.1608 4.93441C21.5946 4.06716 19.8704 3.52254 18.0901 3.33283C16.3099 3.14308 14.5097 3.31204 12.7958 3.8297ZM7.47873 8.69016C7.47873 9.32537 7.29939 9.947 6.96227 10.4839L7.65389 11.6802C6.98294 12.4782 6.06256 13.0266 5.04148 13.2368L4.3576 12.0541C4.0546 12.0768 3.74831 12.0587 3.4471 11.9988C2.79268 11.8687 2.19156 11.5474 1.71973 11.0757C1.24789 10.604 0.92656 10.0029 0.796352 9.34854C0.666102 8.6942 0.732851 8.01591 0.988143 7.3995C1.24339 6.78308 1.67573 6.25621 2.23048 5.88546C2.78523 5.51475 3.43743 5.31683 4.10464 5.31671C4.54773 5.31666 4.98643 5.40387 5.39581 5.57337C5.80518 5.74287 6.17714 5.99137 6.49043 6.30462C6.80377 6.61787 7.05231 6.98979 7.22189 7.39908C7.39144 7.80841 7.47873 8.24712 7.47873 8.69016ZM5.0416 13.2369L10.8583 23.2972L12.6122 26.3348L14.3664 23.2972L16.5533 19.5099L18.7342 23.2835L20.4871 26.3203L22.241 23.2831L25.183 18.1859H29.9879C30.045 17.6817 30.0736 17.1746 30.0737 16.6671C30.0738 16.1596 30.045 15.6525 29.9874 15.1482H23.4287L23.1238 15.6762L20.4863 20.244L18.3053 16.4699L16.5515 13.4322L14.8004 16.4704L12.6122 20.2577L7.65419 11.6803C6.98319 12.4782 6.06277 13.0267 5.0416 13.2369ZM30.0738 16.6668C30.0737 17.1743 30.045 17.6814 29.9879 18.1856H33.2137V15.148H29.9879C30.0454 15.6522 30.074 16.1593 30.0738 16.6668ZM33.2148 15.1482H33.2639C33.3088 15.6485 33.3334 16.155 33.3334 16.6671C33.3334 25.8709 25.8736 33.3333 16.6678 33.3333C7.46202 33.3333 1.82013e-05 25.8718 1.82013e-05 16.668C-0.00239847 15.0366 0.235852 13.4139 0.707018 11.852C1.47889 12.6831 2.52902 13.2019 3.6581 13.31C3.41048 14.3818 3.25964 15.6275 3.25964 16.6671C3.25964 24.0695 9.26081 30.0735 16.6683 30.0735C23.5609 30.0735 29.2346 24.8746 29.9888 18.1859H33.2148V15.1482Z" fill="white"/>
<path d="M51.0845 23L47.3388 9.90909H50.3622L52.5291 19.005H52.6378L55.0284 9.90909H57.6172L60.0014 19.0241H60.1165L62.2834 9.90909H65.3068L61.5611 23H58.8636L56.3707 14.4411H56.2685L53.782 23H51.0845ZM73.0332 18.8196V13.1818H75.7562V23H73.1419V21.2166H73.0396C72.818 21.7919 72.4494 22.2543 71.9338 22.6037C71.4224 22.9531 70.7981 23.1278 70.0609 23.1278C69.4047 23.1278 68.8272 22.9787 68.3287 22.6804C67.8301 22.3821 67.4402 21.9581 67.1589 21.4084C66.8819 20.8587 66.7413 20.2003 66.737 19.4332V13.1818H69.46V18.9474C69.4643 19.527 69.6199 19.9851 69.9267 20.3217C70.2335 20.6584 70.6447 20.8267 71.1603 20.8267C71.4885 20.8267 71.7953 20.7521 72.0808 20.603C72.3663 20.4496 72.5964 20.2237 72.7711 19.9254C72.9501 19.6271 73.0375 19.2585 73.0332 18.8196ZM80.6573 17.3239V23H77.9343V13.1818H80.5295V14.9141H80.6445C80.8619 14.343 81.2262 13.8913 81.7376 13.5589C82.2489 13.2223 82.869 13.054 83.5977 13.054C84.2795 13.054 84.8739 13.2031 85.381 13.5014C85.8881 13.7997 86.2823 14.2259 86.5636 14.7798C86.8448 15.3295 86.9854 15.9858 86.9854 16.7486V23H84.2624V17.2344C84.2667 16.6335 84.1133 16.1648 83.8022 15.8281C83.4911 15.4872 83.0629 15.3168 82.5174 15.3168C82.1509 15.3168 81.8271 15.3956 81.5458 15.5533C81.2688 15.7109 81.0515 15.9411 80.8938 16.2436C80.7404 16.5419 80.6616 16.902 80.6573 17.3239ZM92.7495 23.1598C92.0037 23.1598 91.3283 22.968 90.7232 22.5845C90.1223 22.1967 89.6451 21.6278 89.2914 20.8778C88.9419 20.1236 88.7672 19.1989 88.7672 18.1037C88.7672 16.9787 88.9483 16.0433 89.3105 15.2976C89.6728 14.5476 90.1543 13.9872 90.7551 13.6165C91.3603 13.2415 92.0229 13.054 92.7431 13.054C93.2928 13.054 93.7509 13.1477 94.1174 13.3352C94.4881 13.5185 94.7864 13.7486 95.0123 14.0256C95.2424 14.2983 95.4171 14.5668 95.5364 14.831H95.6195V9.90909H98.3361V23H95.6515V21.4276H95.5364C95.4086 21.7003 95.2275 21.9709 94.9931 22.2393C94.763 22.5036 94.4625 22.723 94.0918 22.8977C93.7253 23.0724 93.2779 23.1598 92.7495 23.1598ZM93.6124 20.9929C94.0513 20.9929 94.4221 20.8736 94.7246 20.6349C95.0314 20.392 95.2658 20.0533 95.4277 19.6186C95.5939 19.1839 95.677 18.6747 95.677 18.0909C95.677 17.5071 95.5961 17 95.4341 16.5696C95.2722 16.1392 95.0378 15.8068 94.731 15.5724C94.4242 15.3381 94.0513 15.2209 93.6124 15.2209C93.165 15.2209 92.7878 15.3423 92.481 15.5852C92.1742 15.8281 91.9419 16.1648 91.7843 16.5952C91.6266 17.0256 91.5478 17.5241 91.5478 18.0909C91.5478 18.6619 91.6266 19.1669 91.7843 19.6058C91.9462 20.0405 92.1784 20.3814 92.481 20.6286C92.7878 20.8714 93.165 20.9929 93.6124 20.9929ZM105.049 23.1918C104.039 23.1918 103.17 22.9872 102.441 22.5781C101.717 22.1648 101.159 21.581 100.767 20.8267C100.375 20.0682 100.179 19.1712 100.179 18.1357C100.179 17.1257 100.375 16.2393 100.767 15.4766C101.159 14.7138 101.711 14.1193 102.422 13.6932C103.138 13.267 103.978 13.054 104.941 13.054C105.588 13.054 106.191 13.1584 106.75 13.3672C107.312 13.5717 107.802 13.8807 108.22 14.294C108.642 14.7074 108.97 15.2273 109.204 15.8537C109.439 16.4759 109.556 17.2045 109.556 18.0398V18.7876H101.265V17.1001H106.993C106.993 16.7081 106.907 16.3608 106.737 16.0582C106.566 15.7557 106.33 15.5192 106.027 15.3487C105.729 15.174 105.382 15.0866 104.985 15.0866C104.572 15.0866 104.206 15.1825 103.886 15.3743C103.571 15.5618 103.324 15.8153 103.145 16.1349C102.966 16.4503 102.874 16.8018 102.87 17.1896V18.794C102.87 19.2798 102.959 19.6996 103.138 20.0533C103.321 20.407 103.579 20.6797 103.912 20.8714C104.244 21.0632 104.638 21.1591 105.094 21.1591C105.397 21.1591 105.674 21.1165 105.925 21.0312C106.176 20.946 106.392 20.8182 106.571 20.6477C106.75 20.4773 106.886 20.2685 106.98 20.0213L109.498 20.1875C109.37 20.7926 109.108 21.321 108.712 21.7727C108.32 22.2202 107.813 22.5696 107.191 22.821C106.573 23.0682 105.859 23.1918 105.049 23.1918ZM111.333 23V13.1818H113.973V14.8949H114.075C114.254 14.2855 114.554 13.8253 114.976 13.5142C115.398 13.1989 115.884 13.0412 116.434 13.0412C116.57 13.0412 116.717 13.0497 116.875 13.0668C117.032 13.0838 117.171 13.1072 117.29 13.1371V15.5533C117.162 15.5149 116.985 15.4808 116.76 15.451C116.534 15.4212 116.327 15.4062 116.14 15.4062C115.739 15.4062 115.381 15.4936 115.066 15.6683C114.755 15.8388 114.507 16.0774 114.324 16.3842C114.145 16.6911 114.056 17.0447 114.056 17.4453V23H111.333ZM127.43 14.1406C127.34 13.8295 127.214 13.5547 127.052 13.3161C126.89 13.0732 126.692 12.8686 126.458 12.7024C126.228 12.532 125.964 12.402 125.665 12.3125C125.371 12.223 125.045 12.1783 124.687 12.1783C124.018 12.1783 123.43 12.3445 122.923 12.6768C122.42 13.0092 122.028 13.4929 121.747 14.1278C121.466 14.7585 121.325 15.5298 121.325 16.4418C121.325 17.3537 121.464 18.1293 121.741 18.7685C122.018 19.4077 122.41 19.8956 122.917 20.2322C123.424 20.5646 124.023 20.7308 124.713 20.7308C125.339 20.7308 125.874 20.62 126.317 20.3984C126.765 20.1726 127.106 19.8551 127.34 19.446C127.579 19.0369 127.698 18.5533 127.698 17.995L128.26 18.0781H124.885V15.9943H130.363V17.6435C130.363 18.794 130.121 19.7827 129.635 20.6094C129.149 21.4318 128.48 22.0668 127.628 22.5142C126.775 22.9574 125.8 23.179 124.7 23.179C123.473 23.179 122.395 22.9084 121.466 22.3672C120.537 21.8217 119.812 21.0483 119.292 20.0469C118.777 19.0412 118.519 17.848 118.519 16.4673C118.519 15.4062 118.672 14.4602 118.979 13.6293C119.29 12.794 119.725 12.0866 120.283 11.5071C120.841 10.9276 121.491 10.4865 122.233 10.1839C122.974 9.88139 123.778 9.73011 124.643 9.73011C125.384 9.73011 126.074 9.83878 126.714 10.0561C127.353 10.2692 127.92 10.5717 128.414 10.9638C128.912 11.3558 129.319 11.8224 129.635 12.3636C129.95 12.9006 130.153 13.4929 130.242 14.1406H127.43ZM132.391 23V13.1818H135.031V14.8949H135.134C135.313 14.2855 135.613 13.8253 136.035 13.5142C136.457 13.1989 136.942 13.0412 137.492 13.0412C137.629 13.0412 137.776 13.0497 137.933 13.0668C138.091 13.0838 138.229 13.1072 138.349 13.1371V15.5533C138.221 15.5149 138.044 15.4808 137.818 15.451C137.592 15.4212 137.386 15.4062 137.198 15.4062C136.798 15.4062 136.44 15.4936 136.124 15.6683C135.813 15.8388 135.566 16.0774 135.383 16.3842C135.204 16.6911 135.114 17.0447 135.114 17.4453V23H132.391ZM142.275 23.1854C141.649 23.1854 141.09 23.0767 140.6 22.8594C140.11 22.6378 139.722 22.3118 139.437 21.8814C139.156 21.4467 139.015 20.9055 139.015 20.2578C139.015 19.7124 139.115 19.2543 139.316 18.8835C139.516 18.5128 139.789 18.2145 140.134 17.9886C140.479 17.7628 140.871 17.5923 141.31 17.4773C141.753 17.3622 142.218 17.2812 142.703 17.2344C143.274 17.1747 143.735 17.1193 144.084 17.0682C144.433 17.0128 144.687 16.9318 144.845 16.8253C145.002 16.7187 145.081 16.5611 145.081 16.3523V16.3139C145.081 15.9091 144.953 15.5959 144.698 15.3743C144.446 15.1527 144.088 15.0419 143.624 15.0419C143.134 15.0419 142.744 15.1506 142.454 15.3679C142.164 15.581 141.972 15.8494 141.879 16.1733L139.36 15.9688C139.488 15.3722 139.74 14.8565 140.115 14.4219C140.49 13.983 140.973 13.6463 141.566 13.4119C142.162 13.1733 142.852 13.054 143.637 13.054C144.182 13.054 144.704 13.1179 145.203 13.2457C145.705 13.3736 146.151 13.5717 146.539 13.8402C146.931 14.1087 147.24 14.4538 147.465 14.8757C147.691 15.2933 147.804 15.794 147.804 16.3778V23H145.222V21.6385H145.145C144.987 21.9453 144.776 22.2159 144.512 22.4503C144.248 22.6804 143.931 22.8615 143.56 22.9936C143.189 23.1214 142.761 23.1854 142.275 23.1854ZM143.055 21.3061C143.455 21.3061 143.809 21.2273 144.116 21.0696C144.423 20.9077 144.664 20.6903 144.838 20.4176C145.013 20.1449 145.1 19.8359 145.1 19.4908V18.4489C145.015 18.5043 144.898 18.5554 144.749 18.6023C144.604 18.6449 144.44 18.6854 144.257 18.7237C144.073 18.7578 143.89 18.7898 143.707 18.8196C143.524 18.8452 143.357 18.8686 143.208 18.8899C142.889 18.9368 142.61 19.0114 142.371 19.1136C142.132 19.2159 141.947 19.3544 141.815 19.5291C141.683 19.6996 141.617 19.9126 141.617 20.1683C141.617 20.5391 141.751 20.8224 142.019 21.0185C142.292 21.2102 142.637 21.3061 143.055 21.3061ZM149.917 26.6818V13.1818H152.601V14.831H152.723C152.842 14.5668 153.015 14.2983 153.241 14.0256C153.471 13.7486 153.769 13.5185 154.135 13.3352C154.506 13.1477 154.966 13.054 155.516 13.054C156.232 13.054 156.893 13.2415 157.498 13.6165C158.103 13.9872 158.586 14.5476 158.949 15.2976C159.311 16.0433 159.492 16.9787 159.492 18.1037C159.492 19.1989 159.315 20.1236 158.961 20.8778C158.612 21.6278 158.135 22.1967 157.53 22.5845C156.929 22.968 156.256 23.1598 155.51 23.1598C154.981 23.1598 154.532 23.0724 154.161 22.8977C153.795 22.723 153.494 22.5036 153.26 22.2393C153.025 21.9709 152.846 21.7003 152.723 21.4276H152.64V26.6818H149.917ZM152.582 18.0909C152.582 18.6747 152.663 19.1839 152.825 19.6186C152.987 20.0533 153.221 20.392 153.528 20.6349C153.835 20.8736 154.208 20.9929 154.647 20.9929C155.09 20.9929 155.465 20.8714 155.772 20.6286C156.079 20.3814 156.311 20.0405 156.469 19.6058C156.631 19.1669 156.711 18.6619 156.711 18.0909C156.711 17.5241 156.633 17.0256 156.475 16.5952C156.317 16.1648 156.085 15.8281 155.778 15.5852C155.471 15.3423 155.094 15.2209 154.647 15.2209C154.204 15.2209 153.829 15.3381 153.522 15.5724C153.219 15.8068 152.987 16.1392 152.825 16.5696C152.663 17 152.582 17.5071 152.582 18.0909ZM164.03 17.3239V23H161.307V9.90909H163.954V14.9141H164.069C164.29 14.3345 164.648 13.8807 165.143 13.5526C165.637 13.2202 166.257 13.054 167.003 13.054C167.684 13.054 168.279 13.2031 168.786 13.5014C169.297 13.7955 169.694 14.2195 169.975 14.7734C170.26 15.3232 170.401 15.9815 170.397 16.7486V23H167.674V17.2344C167.678 16.6293 167.525 16.1584 167.214 15.8217C166.907 15.4851 166.476 15.3168 165.922 15.3168C165.552 15.3168 165.224 15.3956 164.938 15.5533C164.657 15.7109 164.435 15.9411 164.273 16.2436C164.116 16.5419 164.035 16.902 164.03 17.3239Z" fill="white"/>
</svg>
