<?xml version="1.0" encoding="UTF-8"?>
<svg id="Layer_1" data-name="Layer 1" xmlns="http://www.w3.org/2000/svg" xmlns:xlink="http://www.w3.org/1999/xlink" viewBox="0 0 1190.55 841.89">
  <defs>
    <style>
      .cls-1, .cls-2, .cls-3 {
        fill: #fff;
      }

      .cls-4 {
        fill: #1b154a;
      }

      .cls-5 {
        filter: url(#outer-glow-3);
      }

      .cls-6 {
        fill: rgba(159, 159, 159, .3);
      }

      .cls-7 {
        filter: url(#outer-glow-4);
      }

      .cls-8 {
        opacity: .5;
      }

      .cls-9 {
        fill: rgba(159, 159, 159, .5);
      }

      .cls-10 {
        fill: url(#linear-gradient);
      }

      .cls-10, .cls-2, .cls-11 {
        fill-rule: evenodd;
      }

      .cls-12 {
        opacity: .35;
      }

      .cls-13 {
        filter: url(#outer-glow-1);
      }

      .cls-14 {
        opacity: .7;
      }

      .cls-2 {
        opacity: .45;
      }

      .cls-2, .cls-3 {
        isolation: isolate;
      }

      .cls-15 {
        fill: #b81f6d;
      }

      .cls-16 {
        fill: #ed3995;
      }

      .cls-17 {
        filter: url(#outer-glow-5);
      }

      .cls-11, .cls-18 {
        fill: #37375a;
      }

      .cls-19 {
        filter: url(#outer-glow-7);
      }

      .cls-20 {
        fill: none;
        stroke: #37375a;
        stroke-linecap: square;
        stroke-linejoin: round;
        stroke-width: 8.05px;
      }

      .cls-21 {
        fill: #f3f3f3;
      }

      .cls-3 {
        opacity: .2;
      }

      .cls-22 {
        filter: url(#outer-glow-6);
      }

      .cls-23 {
        filter: url(#outer-glow-2);
      }
    </style>
    <linearGradient id="linear-gradient" x1="345.84" y1="749.34" x2="592.87" y2="472.6" gradientTransform="translate(0 842.79) scale(1 -1)" gradientUnits="userSpaceOnUse">
      <stop offset="0" stop-color="#991f5e"/>
      <stop offset=".48" stop-color="#1b154a"/>
    </linearGradient>
    <filter id="outer-glow-1" filterUnits="userSpaceOnUse">
      <feOffset dx="0" dy="0"/>
      <feGaussianBlur result="blur" stdDeviation="2.83"/>
      <feFlood flood-color="#fff" flood-opacity="1"/>
      <feComposite in2="blur" operator="in"/>
      <feComposite in="SourceGraphic"/>
    </filter>
    <filter id="outer-glow-2" filterUnits="userSpaceOnUse">
      <feOffset dx="0" dy="0"/>
      <feGaussianBlur result="blur-2" stdDeviation="2.83"/>
      <feFlood flood-color="#fff" flood-opacity="1"/>
      <feComposite in2="blur-2" operator="in"/>
      <feComposite in="SourceGraphic"/>
    </filter>
    <filter id="outer-glow-3" filterUnits="userSpaceOnUse">
      <feOffset dx="0" dy="0"/>
      <feGaussianBlur result="blur-3" stdDeviation="2.83"/>
      <feFlood flood-color="#fff" flood-opacity="1"/>
      <feComposite in2="blur-3" operator="in"/>
      <feComposite in="SourceGraphic"/>
    </filter>
    <filter id="outer-glow-4" filterUnits="userSpaceOnUse">
      <feOffset dx="0" dy="0"/>
      <feGaussianBlur result="blur-4" stdDeviation="2.83"/>
      <feFlood flood-color="#fff" flood-opacity="1"/>
      <feComposite in2="blur-4" operator="in"/>
      <feComposite in="SourceGraphic"/>
    </filter>
    <filter id="outer-glow-5" filterUnits="userSpaceOnUse">
      <feOffset dx="0" dy="0"/>
      <feGaussianBlur result="blur-5" stdDeviation="2.83"/>
      <feFlood flood-color="#fff" flood-opacity="1"/>
      <feComposite in2="blur-5" operator="in"/>
      <feComposite in="SourceGraphic"/>
    </filter>
    <filter id="outer-glow-6" filterUnits="userSpaceOnUse">
      <feOffset dx="0" dy="0"/>
      <feGaussianBlur result="blur-6" stdDeviation="2.83"/>
      <feFlood flood-color="#fff" flood-opacity="1"/>
      <feComposite in2="blur-6" operator="in"/>
      <feComposite in="SourceGraphic"/>
    </filter>
    <filter id="outer-glow-7" filterUnits="userSpaceOnUse">
      <feOffset dx="0" dy="0"/>
      <feGaussianBlur result="blur-7" stdDeviation="2.83"/>
      <feFlood flood-color="#fff" flood-opacity="1"/>
      <feComposite in2="blur-7" operator="in"/>
      <feComposite in="SourceGraphic"/>
    </filter>
  </defs>
  <path class="cls-16" d="m1081.26,569.85c-5.8-1.21-18.13-3.51-31.76-4.19-14.61-.73-30.74.39-42.01,6.64-11.41,6.33-16.94,16.32-28.11,24.79-5.17,3.94-11.55,7.54-20.29,10.33-7.8,2.48-14.82,3.32-21.67,3.72-18.3,1.11-35.31-.77-62.39,17.98-2.71,1.88-5.97,3.66-9.62,5.33-1.01.49-2.07.94-3.15,1.39-.06.03-.12.06-.17.08-25.31,10.7-64.49,17.04-64.49,17.04l-201.58-315.03,444.45,163.79,42.32,65.85c.71,1.12-.26,2.56-1.56,2.27h0Z"/>
  <g class="cls-12">
    <path class="cls-15" d="m1049.5,565.66c-14.61-.73-30.74.39-42.01,6.64-11.41,6.33-16.93,16.32-28.11,24.79,3.43-7.82,6.73-21.26-3.57-32.51-19.41-21.21-59.51-35.48-59.24-39.17.86-11.59,85.18,23.37,132.92,40.24h0Z"/>
  </g>
  <g class="cls-12">
    <path class="cls-15" d="m937.42,611.14c-18.29,1.11-35.31-.77-62.38,17.98-2.71,1.88-5.97,3.66-9.62,5.33-1.13.44-2.19.89-3.15,1.39-.06.03-.12.06-.16.08,4.67-7.16,18.33-13.58,10.95-35.71-9.09-27.29-49.7-56.77-48.82-60.36,2.36-9.7,66.91,41.15,113.19,71.29h0Z"/>
  </g>
  <path class="cls-18" d="m794.67,659.58l-213.43-333.55,463.24,170.72,43.41,67.56c1.65,2.57,1.6,5.86-.13,8.38-1.73,2.51-4.78,3.73-7.75,3.1-23.24-4.9-53.73-6.99-69.6,1.82-5.71,3.16-9.77,7.41-14.47,12.33-7.82,8.17-16.69,17.44-35.03,23.27-11.2,3.56-20.83,3.95-30.14,4.31-15.47.62-30.08,1.2-52.31,16.6-22.17,15.36-77.54,24.45-79.89,24.83l-3.92.64Zm-183.82-309.74l189.7,296.47c12.88-2.33,54.24-10.52,71.04-22.16,25.12-17.4,42.2-18.08,58.71-18.74,8.9-.36,17.31-.69,26.95-3.76,15.4-4.9,22.47-12.28,29.96-20.11,4.93-5.16,10.03-10.48,17.34-14.54,18.88-10.48,48.68-8.06,67.47-5.02l-35.52-55.29-425.66-156.87h0Zm466.87,221s0,.01.01.02v-.02Z"/>
  <path class="cls-16" d="m653.91,369.18s240.73,81.17,430.87,201.47c0,0,30.53-51.83-15.11-95.89,0,0-87.22-8.97-210.71-58.58-119.91-48.17-213.12-103.15-213.12-103.15l8.07,56.15h0Z"/>
  <path class="cls-18" d="m1084.25,576.09c-1.42,0-2.82-.4-4.03-1.17-187.11-118.06-425.84-199.2-428.23-200.01l-3.52-1.19-10.39-72.31,10.85,6.4c.93.55,94.23,55.32,212.3,102.75,121.16,48.67,208.21,58.09,209.08,58.18l2.07.22,1.5,1.45c44.21,42.68,21.96,92.14,17.05,101.62-.97,1.87-2.69,3.26-4.71,3.8-.64.17-1.31.26-1.96.26h0Zm-424.87-211.43c30.24,10.5,247.78,87.76,422.92,197.28,5.87-13.83,16.21-49.58-15.39-81.4-14.26-1.78-97.92-13.63-210.19-58.73-95.58-38.4-175.08-81.59-203.11-97.37l5.78,40.23h0Z"/>
  <path class="cls-21" d="m499.36,582.23c12.76,48.13,25.82,70.82,25.82,70.82,0,0,21.14,46.31,66.35,69.25,29.07,14.76,66.15,11.73,66.15,11.73,0,0,18.95,60.3,44.21,72.51,25.26,12.21,67.65-4.67,60.85-48.88-4.53-29.42-23.02-73.24-35.33-87.44-15.41-17.78-78.93-91.1-86.55-119.54"/>
  <path class="cls-18" d="m719.58,816.48c-7.09,0-14.08-1.47-20.33-4.5-23.55-11.39-40.67-56.48-45.88-71.69-11.3.3-40.29-.27-64.58-12.6-45.31-22.99-67.03-67.68-69-71.88-1.55-2.77-14.03-25.81-26.28-72.04-.86-3.23,1.07-6.55,4.29-7.4,3.22-.86,6.54,1.07,7.4,4.3,12.35,46.59,25.09,69.14,25.22,69.36l.26.5c.2.44,20.89,44.7,63.58,66.36,27.24,13.82,62.56,11.12,62.92,11.1l4.81-.39,1.45,4.61c5.06,16.08,22.3,59.81,41.07,68.88,11.67,5.64,27.58,3.83,38.7-4.4,11.24-8.32,16.05-21.85,13.55-38.11-4.48-29.11-22.7-71.45-33.93-84.4-52.97-61.13-82.52-102.15-87.82-121.94-.87-3.23,1.05-6.55,4.28-7.42,3.23-.86,6.54,1.05,7.41,4.28,2.71,10.13,17.41,38.82,85.28,117.14,13.75,15.86,32.29,61.53,36.74,90.49,4.34,28.22-9.61,43.24-18.31,49.68-8.95,6.63-19.99,10.06-30.82,10.06h0Z"/>
  <path class="cls-21" d="m505.55,354.16L219.35,77.05s-41.27-56.68-93.95-15.17c-51.7,40.74-23.41,81.73-5.25,101l268.11,218.13s21.46,189.03,134.57,256.36c76.87,45.76,151.23,9.06,151.23,9.06,0,0,21.14,46.31,66.35,69.25,29.08,14.76,66.15,11.73,66.15,11.73,0,0,18.95,60.3,44.21,72.51,25.26,12.21,67.65-4.67,60.85-48.88-4.53-29.42-23.02-73.24-35.33-87.44-15.41-17.78-78.93-91.1-86.55-119.54-41.26-153.89-155.89-222.33-155.89-222.33l-128.29,32.44h0Z"/>
  <path class="cls-21" d="m912.35,759.88c.24,37.58-38.09,51.4-61.59,40.03-25.25-12.2-44.21-72.5-44.21-72.5,0,0-37.06,3.03-66.14-11.73-45.21-22.94-66.35-69.24-66.35-69.24,0,0-74.36,36.69-151.23-9.07-1.15-.68-2.3-1.39-3.43-2.1-73.72-46.24-107.5-144.5-121.79-204.4-7.06-29.6-9.36-49.86-9.36-49.86l-40.06-32.59-38.75-31.53L120.16,162.88c-.26-.27-.51-.55-.77-.83-18.17-19.59-44.95-60,6.02-100.17,52.68-41.52,93.95,15.17,93.95,15.17l95.75,92.72,190.43,184.4,128.29-32.44s14.59,8.72,35.23,26.91c6.41,5.64,13.41,12.21,20.73,19.72,28.97,29.67,63.06,74.01,86.47,134.45,5.02,13,9.57,26.75,13.46,41.24,7.63,28.44,71.15,101.77,86.56,119.54,12.31,14.21,30.81,58.03,35.34,87.45.48,3.07.71,6.02.73,8.84h0Z"/>
  <path class="cls-18" d="m868.46,809.87c-7.09,0-14.08-1.47-20.33-4.5-23.55-11.39-40.67-56.48-45.88-71.69-11.29.32-40.28-.27-64.58-12.6-37.87-19.22-59.27-53.6-66.42-66.81-19.02,7.7-83.89,28.56-151.51-11.69-59.99-35.71-94.2-104.89-112.32-156.63-17.22-49.14-23.48-91.22-24.86-101.77L116.02,167.33l-.28-.29c-18.25-19.37-27.15-39.71-25.73-58.82,1.36-18.42,12.01-35.61,31.65-51.09,16.48-12.98,33.67-18.34,51.11-15.94,28.93,3.99,48.28,28.11,51.13,31.85l283.43,274.43,127.45-32.23,2.15,1.29c1.2.72,29.79,17.97,63.8,54.53,31.32,33.67,73.2,90.74,94.84,171.43,2.72,10.14,17.41,38.83,85.28,117.14,13.75,15.86,32.29,61.53,36.74,90.49,4.34,28.22-9.61,43.24-18.31,49.69-8.95,6.62-19.99,10.06-30.82,10.06h0Zm-57.6-88.88l1.45,4.6c5.06,16.08,22.31,59.8,41.07,68.87,11.67,5.64,27.58,3.83,38.7-4.4,11.24-8.32,16.05-21.85,13.55-38.11-4.48-29.11-22.7-71.45-33.93-84.4-52.97-61.12-82.52-102.15-87.83-121.94-37.08-138.29-135.59-207.26-151.09-217.39l-129.03,32.63L214.77,81.04l-.31-.42c-.17-.23-17.84-23.96-43.42-27.45-14.03-1.92-28.13,2.62-41.89,13.47-16.86,13.29-25.96,27.57-27.07,42.47-1.45,19.59,11.21,37.59,22.2,49.34l269.71,219.43.28,2.46c.21,1.86,22.46,186.84,131.66,251.84,73,43.45,144.75,9.18,145.47,8.83l5.58-2.74,2.59,5.65c.2.44,20.89,44.7,63.58,66.36,27.15,13.78,62.57,11.12,62.92,11.09l4.8-.39h0Z"/>
  <path class="cls-21" d="m107.48,146.99s12.91,16.3,31.29,13.47c30.55-4.7,73.11-37.43,64.36-60.46-7.27-19.12-28.12-19.15-20.73-34.08"/>
  <path class="cls-18" d="m112.22,143.23l.63.72c.25.28.51.56.79.83.53.56,1.12,1.1,1.7,1.63,1.17,1.05,2.41,2.05,3.69,2.94,2.56,1.8,5.3,3.23,8.11,4.15,2.81.92,5.68,1.31,8.54,1.18l2.14-.19,2.41-.43c1.61-.35,3.23-.72,4.84-1.19,6.45-1.85,12.8-4.61,18.83-7.94,6.03-3.34,11.79-7.24,16.99-11.68,5.17-4.42,9.96-9.37,13.19-14.86,1.61-2.72,2.8-5.56,3.38-8.24.59-2.7.46-5.12-.21-7.31-.11-.5-.44-1.26-.68-1.92-.31-.66-.58-1.33-.93-1.96-.67-1.29-1.39-2.56-2.29-3.76-1.75-2.44-3.96-4.74-6.49-7.24-1.26-1.26-2.65-2.5-4.01-4.01-1.35-1.52-2.85-3.12-3.97-5.4-.58-1.09-1-2.39-1.25-3.68-.2-1.33-.17-2.66.07-3.88.46-2.46,1.64-4.34,2.89-5.93.7-.9,1.99-1.05,2.89-.35.63.49.9,1.28.75,2.02l-.02.13c-.33,1.68-.47,3.29-.18,4.49.29,1.22.82,1.96,1.67,2.79,1.71,1.67,4.78,3.42,7.87,5.51,3.15,2.05,6.43,4.62,9.27,7.85,1.42,1.61,2.73,3.38,3.84,5.27.57.94,1.05,1.93,1.55,2.91.43,1.03.91,1.92,1.26,3.18,1.59,4.75,1.51,9.9.33,14.26-1.15,4.41-3.11,8.25-5.31,11.73-4.45,6.94-9.92,12.61-15.8,17.64-5.89,5.02-12.26,9.33-18.98,13.06-6.72,3.71-13.81,6.82-21.37,8.99-1.89.55-3.82,1-5.77,1.42l-2.97.53-3.3.32c-4.42.23-8.87-.41-12.98-1.76-4.12-1.35-7.89-3.36-11.28-5.74-1.71-1.18-3.31-2.49-4.85-3.87-.76-.7-1.52-1.4-2.24-2.16-.36-.37-.73-.75-1.09-1.15-.38-.41-.68-.75-1.16-1.34-2.11-2.59-1.73-6.39.85-8.51,2.52-2.07,6.21-1.75,8.35.68l.28.32v-.02Z"/>
  <path class="cls-21" d="m237.02,106.41c-17.68-29.36-37.84-31.05-61.51-17.66-17.26,9.77-26.06,26.94-20.43,36.95,6.77,12.04,39.97-7.94,41.04-6.99,1.07.95-7.28,17.26-2.86,31.53"/>
  <path class="cls-18" d="m236.17,106.93c-1.58-1.41-3.05-2.83-4.47-4.27l-2.25-2.01c-.73-.67-1.42-1.39-2.18-2.01-3.05-2.47-5.96-4.93-9.11-6.68-1.5-1.03-3.14-1.64-4.66-2.44-1.62-.53-3.15-1.25-4.77-1.53-3.18-.83-6.44-.99-9.78-.6-1.65.09-3.36.52-5.04.82-1.69.52-3.41.85-5.12,1.54-3.43,1.13-6.85,2.78-10.22,4.51-6.34,3.44-12.06,8.38-15.6,14.3-1.79,2.91-2.94,6.09-3.22,8.89-.06,1.37-.04,2.68.35,3.67.08.57.44.94.59,1.42.1.12.1.06.16.11.1.05.92.34,2.24.33,1.3.01,2.91-.2,4.58-.57,3.37-.7,6.96-1.95,10.56-3.29,3.63-1.36,7.22-2.92,11.04-4.47.97-.4,1.91-.79,3.1-1.24.31-.11.63-.23,1.08-.37l.37-.11.55-.14c.21-.05.65-.13.97-.16.42-.04.87-.04,1.31,0,.07,0,.49.02,1.35.29.69.23,1.37.6,1.92,1.03.53.43.61.56.91.91.25.3.47.63.67.98.38.64.65,1.64.64,1.69.11.52.16,1.06.16,1.58l-.05.68c-.02.23-.06.46-.08.56-.11.58-.21.94-.31,1.3-.4,1.28-.74,2.2-1.1,3.17l-1.06,2.77c-2.75,7.24-5.18,14.13-5.45,22.36v.03c-.02.58-.51,1.04-1.09,1.02-.35-.01-.65-.19-.84-.46-2.53-3.68-3.77-8.24-4.18-12.71-.39-4.5.04-8.99.84-13.24l1.25-5.83c.02-.14.03-.28,0-.2,0-.03-.02.07-.03.18-.01.1-.02.2-.01.3-.01.39.03.81.12,1.2l.15.53c.11.33.25.66.42.98.18.32.39.62.62.9.29.32.36.41.86.83.52.43,1.17.78,1.83,1,.83.25,1.22.26,1.26.27.37.04.76.04,1.12,0,.19,0,.5-.07.59-.09l.18-.04h0s-.34.17-.34.17l-2.5,1.24c-3.59,1.87-7.42,3.72-11.39,5.37-3.98,1.66-8.14,3.1-12.77,4.06-2.33.45-4.79.78-7.57.7-2.73-.11-6.1-.62-9.38-2.92-1.6-1.15-3-2.76-3.89-4.43-.63-1.4-1.35-2.81-1.64-4.27-.84-2.93-.78-5.79-.51-8.46.71-5.32,2.79-9.86,5.25-13.9,5.09-8,12.01-14.15,19.78-18.86,3.8-2.15,7.64-4.3,11.94-5.86,2.07-.87,4.35-1.47,6.57-2.07,1.14-.26,2.32-.44,3.48-.65.59-.09,1.16-.22,1.76-.28l1.81-.1c2.39-.22,4.85-.03,7.27.18,2.41.47,4.84.88,7.12,1.79,1.16.39,2.31.8,3.36,1.4,1.07.56,2.16,1.08,3.18,1.7,1.94,1.36,3.94,2.64,5.55,4.28,3.47,3.06,6.08,6.71,8.36,10.41,1.09,1.88,2.03,3.83,2.95,5.75.8,1.99,1.54,4,2.17,6.02.17.55-.13,1.13-.68,1.3-.36.11-.74.02-1-.21l-.05-.05h0Z"/>
  <path class="cls-18" d="m657.37,728.72c1.54-.42,3.49-.8,5.26-1.19l5.44-1.17c3.61-.84,7.24-1.65,10.8-2.78,3.58-1.1,7-2.58,10.39-4.3,3.42-1.71,6.51-3.97,9.75-6.47l.04-.04c.34-.26.83-.2,1.09.14.18.23.21.53.1.79-1.7,3.82-4.09,7.51-7.13,10.6-3.04,3.06-6.49,5.84-10.25,7.99-3.75,2.17-7.72,4.03-11.87,5.23-2.07.61-4.17,1.11-6.32,1.41-2.18.34-4.2.5-6.67.4-2.93-.12-5.22-2.6-5.1-5.53.1-2.38,1.73-4.33,3.91-4.92l.57-.16h0Z"/>
  <path class="cls-18" d="m806.24,722.1c1.54-.42,3.49-.8,5.26-1.19l5.44-1.17c3.61-.84,7.24-1.65,10.8-2.79,3.57-1.1,7-2.58,10.39-4.3,3.42-1.71,6.51-3.97,9.75-6.47l.05-.04c.34-.26.82-.2,1.09.14.18.24.21.54.09.79-1.7,3.82-4.1,7.5-7.13,10.6-3.04,3.06-6.49,5.84-10.25,7.99-3.75,2.17-7.72,4.03-11.87,5.23-2.07.61-4.17,1.11-6.32,1.41-2.18.34-4.21.5-6.67.4-2.93-.12-5.22-2.6-5.1-5.53.1-2.37,1.73-4.32,3.91-4.92l.57-.16h0Z"/>
  <path class="cls-21" d="m893.55,547.86c-21.29,6.21-47.57,1.35-47.57,1.35,0,0-1.13,31.35-18.75,25.31-5.68-1.95-10.42-13.56-13.71-24.67-4.94-16.6-14.99-31.29-29.04-41.38-2.72-1.95-5.46-3.84-8.21-5.66-46.21-30.6-95.15-42.82-95.15-42.82l-7.57-70-4.47-41.35-.21-1.94c8.06,1.54,17.67,5.01,28.21,9.81,53.01,24.08,129.08,81.58,145.89,96.56,20.17,17.98,80.24,10.85,86.93,47.68,4.64,25.56-8.13,38.91-36.33,47.12h0Z"/>
  <path class="cls-18" d="m681.6,458.03c5.08.12,9.95.86,14.82,1.79,4.84.96,9.62,2.18,14.32,3.64,9.38,2.97,18.55,6.59,27.47,10.77,4.49,2.02,8.85,4.34,13.22,6.61l6.46,3.61,3.22,1.81,3.18,1.91,6.35,3.8,6.22,4.02,3.11,2.01,3.05,2.11,6.1,4.24c8.44,6.13,15.76,13.93,21.21,22.88,2.74,4.46,5.05,9.2,6.84,14.13.44,1.23.88,2.47,1.26,3.73l1.06,3.52c.67,2.23,1.39,4.43,2.16,6.58,1.55,4.24,3.38,8.51,5.53,11.49.26.34.52.73.78.97l.37.43c.12.09.23.19.33.29.23.26.35.23.49.39.09-.03-.07.02.44.13,1.47.42,2.48.43,3.2.11.75-.24,1.68-1.03,2.59-2.38.9-1.35,1.71-3.12,2.34-5.06.64-1.93,1.13-4.04,1.51-6.18.36-2.1.64-4.46.74-6.39l.35-6.88,6.8,1.15c3.91.66,8.28,1.14,12.46,1.41,4.23.27,8.46.39,12.65.23,4.19-.15,8.33-.54,12.38-1.19,4.04-.67,7.82-1.77,11.91-3.09,7.88-2.68,15.41-6.21,20.74-11.31,2.6-2.57,4.57-5.5,5.8-8.79,1.24-3.29,1.75-6.94,1.73-10.77-.13-1.94-.17-3.86-.53-5.85-.25-2.05-.63-3.76-1.17-5.46-1.09-3.39-2.9-6.4-5.36-9.02-4.94-5.27-12.41-8.8-20.32-11.45-7.96-2.67-16.46-4.56-25.12-6.67-4.34-1.06-8.73-2.17-13.17-3.55-4.43-1.39-8.94-3.03-13.39-5.48l-1.66-.94-1.64-1.09c-1.1-.68-2.15-1.61-3.2-2.45l-2.45-2.12-2.47-2.08c-3.34-2.76-6.77-5.48-10.21-8.19-6.91-5.39-13.93-10.68-21.02-15.88-14.17-10.4-28.59-20.48-43.28-30.12-14.7-9.59-29.56-18.97-44.99-27.1-7.76-3.98-15.66-7.55-23.32-11.45-7.76-3.79-15.2-7.63-22.98-12.18l-.09-.05c-1-.59-1.34-1.88-.75-2.88.35-.6.96-.96,1.6-1.03,2.35-.24,4.78-.36,7.09-.14,1.16.11,2.34.17,3.51.32,1.15.16,2.28.38,3.43.59,4.57.87,8.93,2.27,13.18,3.91,8.54,3.18,16.43,7.61,24.21,12.06,7.79,4.45,15.55,8.86,23.17,13.51,7.62,4.63,15.13,9.43,22.57,14.31,14.88,9.77,29.46,19.96,43.8,30.48,7.17,5.27,14.27,10.62,21.31,16.11,3.51,2.76,7.01,5.53,10.48,8.41l2.61,2.19,2.57,2.22c1.31,1.07,2.71,2.13,4.41,3,6.67,3.65,15.12,5.77,23.56,7.86,8.5,2.08,17.3,4.01,26.12,6.96,4.4,1.49,8.83,3.23,13.14,5.56,4.3,2.31,8.52,5.24,12.12,9.06,3.61,3.8,6.47,8.55,8.07,13.59.81,2.5,1.35,5.14,1.64,7.48.42,2.38.51,4.88.65,7.36.04,5.02-.63,10.26-2.51,15.26-1.85,5-4.97,9.56-8.67,13.18-7.57,7.18-16.58,11.08-25.33,14.12-2.25.67-4.34,1.45-6.72,2.02-2.34.65-4.67,1.09-7.01,1.53-4.68.76-9.35,1.18-13.99,1.35-4.64.17-9.26.05-13.85-.24-4.64-.31-9.06-.77-13.87-1.59l7.14-5.73c-.15,2.9-.46,5.36-.91,8.02-.46,2.62-1.06,5.25-1.94,7.91-.87,2.65-2.02,5.36-3.8,8.04-1.77,2.62-4.43,5.45-8.26,6.89-1.86.75-3.9,1.05-5.78,1.03-.95-.02-1.88-.08-2.73-.25-.9-.13-1.71-.35-2.51-.59-.68-.15-1.91-.68-2.93-1.2-.84-.55-1.81-1.15-2.43-1.75l-1.02-.93-.84-.92c-.59-.63-1.02-1.24-1.49-1.86-1.79-2.47-3.05-4.89-4.19-7.3-1.12-2.41-2.09-4.82-2.96-7.22-.86-2.4-1.64-4.8-2.37-7.21l-1.03-3.43c-.31-1.07-.68-2.11-1.06-3.15-1.5-4.17-3.46-8.18-5.79-11.96-4.62-7.58-10.8-14.18-18-19.41-15.3-11.09-32.03-20.22-49.31-28.08-17.17-8.18-34.86-14.93-52.06-24.12l-.05-.03c-1-.54-1.39-1.79-.85-2.8.38-.71,1.12-1.11,1.87-1.09h-.02Z"/>
  <g class="cls-14">
    <path class="cls-21" d="m316.83,163.14c-3.94,9.87-6.67,18.86-8.5,25.76,1.89-9.05,4.77-17.67,8.5-25.76Z"/>
  </g>
  <path class="cls-21" d="m298.45,246.95c1.95,34.02,12.51,67.77,31.87,97.88,3.95,6.14,8.25,12.12,12.92,17.91,2.26,2.83,4.64,5.61,7.09,8.37,7.42,8.28,15.36,15.83,23.74,22.63,7.21,5.89,14.76,11.22,22.55,16,9.41,5.78,19.19,10.74,29.25,14.9,3.67,1.5,7.37,2.91,11.1,4.22,68.29,23.75,146.97,11.46,204.77-38.93,85.17-74.21,92.77-202.97,17.01-287.58-14.6-16.28-31.23-29.79-49.19-40.36-2.08-1.26-4.22-2.46-6.37-3.61-5.74-3.13-11.59-5.97-17.55-8.52-13.77-5.9-28.08-10.25-42.62-13.06-14.54-2.82-29.34-4.1-44.11-3.81-4.7.09-9.39.33-14.08.74-7.03.62-14.03,1.57-21,2.92-34.73,6.6-68.13,22.14-96.5,46.87-48.99,42.69-72.31,103.42-68.88,163.41h0Z"/>
  <path class="cls-4" d="m522.22,440.47c-28.46,2.23-57.57-1.33-85.46-11.03-3.72-1.3-7.46-2.72-11.13-4.23-10.19-4.22-20.06-9.25-29.34-14.95-7.92-4.86-15.53-10.26-22.62-16.05-8.47-6.88-16.47-14.52-23.81-22.7-2.69-3.03-5.01-5.78-7.11-8.4-4.59-5.69-8.95-11.74-12.95-17.96-18.92-29.42-29.98-63.37-31.96-98.18-3.59-62.78,21.59-122.53,69.09-163.91,27.47-23.94,60.93-40.2,96.78-47.01,6.78-1.31,13.87-2.3,21.06-2.93,4.61-.41,9.37-.65,14.12-.75,14.8-.29,29.69.99,44.23,3.82,14.69,2.84,29.07,7.24,42.75,13.1,5.95,2.55,11.87,5.43,17.6,8.55,2.3,1.24,4.4,2.42,6.39,3.62,18.32,10.79,34.92,24.41,49.32,40.48,36.9,41.21,55.35,94.02,51.96,148.71-3.36,54.26-27.88,103.88-69.02,139.73-33.86,29.52-76.12,46.65-119.91,50.08h0Zm-223.77-193.53l.62-.03c1.98,34.59,12.96,68.34,31.77,97.58,3.98,6.19,8.31,12.19,12.88,17.86,2.09,2.61,4.4,5.34,7.07,8.35,7.28,8.13,15.25,15.73,23.66,22.57,7.04,5.75,14.61,11.12,22.48,15.95,9.22,5.67,19.03,10.67,29.16,14.86,3.65,1.49,7.37,2.91,11.07,4.2,70.39,24.48,148.62,9.6,204.17-38.81,40.9-35.64,65.27-84.96,68.61-138.89,3.37-54.36-14.98-106.85-51.66-147.82-14.32-15.97-30.82-29.51-49.04-40.24-1.99-1.2-4.06-2.37-6.35-3.6-5.7-3.1-11.59-5.96-17.5-8.5-13.6-5.82-27.9-10.2-42.49-13.02-14.47-2.81-29.26-4.08-43.98-3.79-4.73.09-9.45.34-14.04.74-7.15.63-14.2,1.61-20.94,2.91-35.64,6.77-68.91,22.93-96.21,46.73-47.21,41.13-72.24,100.51-68.67,162.91l-.61.04h0Z"/>
  <path class="cls-4" d="m522.52,444.57c-29.02,2.27-58.7-1.35-87.13-11.24-3.8-1.33-7.61-2.78-11.34-4.31-10.4-4.31-20.47-9.43-29.93-15.25-8.08-4.96-15.84-10.46-23.06-16.36-8.63-7.01-16.79-14.8-24.27-23.14-2.74-3.1-5.11-5.9-7.26-8.57-4.67-5.8-9.11-11.96-13.2-18.31-19.3-30.02-30.58-64.66-32.61-100.17-3.66-64.06,22.03-125.02,70.49-167.25,28.01-24.42,62.15-41,98.72-47.95,6.91-1.33,14.14-2.34,21.47-2.99,4.71-.41,9.56-.67,14.4-.76,15.09-.3,30.27,1.01,45.1,3.89,14.97,2.89,29.64,7.38,43.58,13.35,6.07,2.6,12.11,5.53,17.95,8.72,2.34,1.26,4.49,2.47,6.55,3.71,18.65,10.99,35.58,24.88,50.26,41.26,37.64,42.04,56.47,95.92,53.01,151.71-3.43,55.36-28.44,106-70.43,142.58-34.54,30.11-77.63,47.58-122.29,51.07h0Zm-219.37-197.89c1.94,33.89,12.7,66.94,31.13,95.59,3.91,6.07,8.15,11.95,12.62,17.5,2.05,2.56,4.32,5.24,6.94,8.2,7.13,7.96,14.93,15.4,23.18,22.1,6.91,5.64,14.32,10.9,22.04,15.64,9.04,5.56,18.65,10.46,28.59,14.56,3.57,1.46,7.23,2.85,10.85,4.12,68.99,23.99,145.67,9.42,200.1-38.03,40.07-34.91,63.93-83.22,67.21-136.04,3.3-53.25-14.67-104.68-50.61-144.82-14.04-15.65-30.21-28.92-48.06-39.44-1.96-1.18-3.98-2.32-6.21-3.52-5.61-3.06-11.38-5.86-17.17-8.34-13.33-5.71-27.34-10-41.66-12.76-14.18-2.75-28.69-4-43.12-3.72-4.64.09-9.27.33-13.76.73-7.01.62-13.92,1.58-20.52,2.85-34.94,6.64-67.53,22.47-94.28,45.79-46.24,40.29-70.76,98.46-67.26,159.58h0Z"/>
  <path class="cls-18" d="m522.64,445.94c-29.21,2.29-59.07-1.36-87.69-11.32-3.82-1.34-7.65-2.79-11.41-4.33-10.48-4.34-20.61-9.5-30.13-15.35-8.13-4.99-15.94-10.53-23.21-16.47-8.68-7.05-16.9-14.89-24.42-23.29-2.76-3.12-5.15-5.93-7.3-8.63-4.7-5.83-9.17-12.03-13.28-18.42-19.43-30.22-30.78-65.09-32.83-100.83-3.69-64.49,22.18-125.86,70.96-168.36,28.19-24.58,62.55-41.27,99.36-48.26,6.95-1.34,14.23-2.35,21.61-3.01,4.74-.41,9.62-.67,14.49-.77,15.19-.3,30.46,1.02,45.39,3.91,15.06,2.91,29.82,7.43,43.86,13.44,6.11,2.62,12.18,5.57,18.06,8.77,2.35,1.26,4.52,2.49,6.6,3.74,18.76,11.05,35.79,25.03,50.58,41.52,37.89,42.32,56.84,96.55,53.36,152.71-3.45,55.73-28.63,106.71-70.9,143.54-34.76,30.3-78.14,47.89-123.09,51.4h0Zm-218.11-199.34c1.92,33.65,12.61,66.48,30.91,94.93,3.87,6.02,8.1,11.87,12.54,17.38,2.04,2.55,4.29,5.21,6.9,8.15,7.07,7.9,14.82,15.29,23.02,21.95,6.86,5.6,14.22,10.83,21.89,15.53,8.98,5.52,18.53,10.38,28.39,14.46,3.54,1.45,7.18,2.83,10.78,4.1,68.52,23.83,144.68,9.36,198.75-37.77,39.78-34.67,63.48-82.64,66.74-135.09,3.28-52.88-14.58-103.96-50.27-143.82-13.94-15.55-30-28.73-47.74-39.17-1.95-1.18-3.95-2.31-6.16-3.49-5.58-3.04-11.31-5.82-17.06-8.29-13.24-5.67-27.16-9.93-41.38-12.68-14.09-2.74-28.5-3.98-42.83-3.69-4.61.09-9.2.33-13.67.72-6.96.61-13.82,1.57-20.38,2.84-34.7,6.59-67.08,22.32-93.64,45.48-45.92,40.01-70.27,97.77-66.8,158.47h0Z"/>
  <path class="cls-10" d="m482.34,406.38c4.21-.04,8.37-.22,12.49-.54h0c57.25-4.48,105.91-36.14,134.8-88.22,21.36-38.5,25.01-84.67,10.29-130-16.35-50.36-53.72-93.3-99.97-114.87-79.65-37.15-151.93-18.99-214.83,53.95l-.38.51c-1.09,1.76-26.77,43.39-28.71,79.37-1.91,35.29,2.25,70.43,2.3,70.78l6.01,22.57.27.47c38.21,66.02,106.31,106.63,177.73,105.98Z"/>
  <path class="cls-18" d="m497.76,428.87c-42.72,3.34-87.35-6.95-126.78-29.85l-.78-.54c-8.69-7.06-16.91-14.9-24.43-23.3-2.76-3.12-5.15-5.93-7.3-8.63-4.7-5.83-9.17-12.03-13.28-18.42-19.43-30.22-30.78-65.09-32.83-100.83-3.69-64.49,22.18-125.86,70.96-168.36,28.2-24.58,62.55-41.27,99.36-48.26l.61-.12h.62c27.37.47,55.99,7.58,85.06,21.14,52.34,24.41,94.64,73.01,113.15,130,16.67,51.35,12.52,103.66-11.69,147.3-26.34,47.47-66.56,79.82-116.31,93.54-11.84,3.27-24.03,5.37-36.37,6.33h0Zm-120.24-40.15c47.92,27.69,103.79,35.73,153.36,22.06,46.52-12.82,84.17-43.15,108.89-87.69,22.55-40.64,26.36-89.51,10.75-137.61-17.48-53.83-57.37-99.71-106.7-122.71-27.29-12.73-54.03-19.45-79.49-19.98-34.45,6.66-66.6,22.33-93.01,45.36-45.92,40.01-70.27,97.77-66.8,158.47,1.92,33.65,12.61,66.48,30.91,94.93,3.88,6.02,8.1,11.87,12.54,17.38,2.04,2.55,4.29,5.21,6.9,8.15,6.97,7.78,14.59,15.07,22.65,21.65h0Z"/>
  <path class="cls-21" d="m712.74,346.61c-15.05,37.24-50.01,59.53-78.08,49.77-28.07-9.75-38.62-47.85-23.56-85.1.09-.24.2-.48.3-.71,15.2-36.82,49.91-58.75,77.78-49.07,21.69,7.54,32.91,31.99,29.96,59.89-.88,8.21-2.97,16.74-6.4,25.21h0Z"/>
  <path class="cls-18" d="m652.29,404.57c-6.69.52-13.32-.24-19.64-2.43-12.58-4.38-22.4-13.68-28.41-26.92-8.59-18.94-8.15-43.08,1.2-66.23,16.23-40.15,54.69-64.04,85.74-53.25,12.58,4.37,22.4,13.68,28.41,26.92,8.59,18.94,8.16,43.08-1.2,66.23-12.93,31.97-39.95,53.63-66.1,55.68Zm19.85-139.16c-21.5,1.68-44.23,20.54-55.39,48.15-8,19.77-8.52,40.94-1.4,56.62,4.59,10.12,11.96,17.19,21.31,20.44,25,8.69,56.59-12.08,70.43-46.29,8-19.77,8.52-40.94,1.4-56.61-4.59-10.12-11.96-17.19-21.31-20.44-4.82-1.68-9.89-2.26-15.04-1.85Z"/>
  <path class="cls-21" d="m714.51,361.22c14.75-28.32,9.36-60.33-12.05-71.48-21.41-11.15-50.73,2.77-65.48,31.09-14.75,28.32-9.36,60.33,12.05,71.48,21.41,11.15,50.73-2.77,65.48-31.09Z"/>
  <path class="cls-4" d="m668.2,396.63c-1,.08-2,.12-3,.13-10.64.04-19.87-4.12-26.71-12.05-16.42-19.04-13.14-54.13,7.31-78.24,11.41-13.43,26.15-21.17,40.44-21.24,10.64-.04,19.87,4.12,26.71,12.05,16.42,19.04,13.15,54.13-7.31,78.24-10.61,12.5-24.1,20.07-37.44,21.11Zm15.14-109.99c-13,1.02-26.18,8.43-36.56,20.67-20.07,23.64-23.35,58-7.32,76.58,6.59,7.63,15.48,11.64,25.73,11.6,13.92-.06,28.31-7.63,39.47-20.79,20.07-23.64,23.35-57.99,7.32-76.57-6.59-7.63-15.48-11.64-25.73-11.61-.97,0-1.94.04-2.91.12Z"/>
  <path class="cls-18" d="m666.8,402.13c-5.01.39-9.97-.17-14.72-1.78-9.44-3.2-16.84-10.17-21.4-20.18-6.98-15.31-6.36-36.19,1.68-55.83,13.8-33.76,43.9-53.67,68.53-45.32,9.43,3.2,16.84,10.17,21.4,20.18,6.99,15.31,6.36,36.19-1.67,55.83-11.14,27.24-32.89,45.46-53.81,47.09h0Zm20.6-112.68c-16.24,1.27-34.63,17.18-43.76,39.5-6.78,16.59-7.48,33.84-1.87,46.15,3.14,6.87,8.05,11.6,14.22,13.7,17.91,6.07,42.34-11.5,53.33-38.38,6.78-16.59,7.48-33.84,1.87-46.16-3.13-6.87-8.05-11.6-14.22-13.69-3.03-1.03-6.26-1.38-9.57-1.12Z"/>
  <g class="cls-8">
    <path class="cls-3" d="m608.7,253.6c2.51-16.49-7.09-31.63-21.45-33.82-14.36-2.18-28.03,9.41-30.54,25.9-2.51,16.49,7.09,31.63,21.45,33.82,14.36,2.18,28.03-9.41,30.54-25.9Z"/>
  </g>
  <g class="cls-8">
    <path class="cls-3" d="m584.84,304.45c.4-6.88-4.13-12.74-10.11-13.09-5.98-.35-11.16,4.95-11.56,11.83-.4,6.88,4.13,12.74,10.11,13.09,5.98.35,11.16-4.95,11.56-11.83Z"/>
  </g>
  <g class="cls-13">
    <circle class="cls-6" cx="542.15" cy="171.16" r="2.2" shape-rendering="crispEdges" transform="translate(-11.7 42.82) rotate(-4.48)"/>
  </g>
  <g class="cls-23">
    <circle class="cls-9" cx="383.73" cy="207.86" r="4.41" shape-rendering="crispEdges"/>
  </g>
  <g class="cls-5">
    <circle class="cls-9" cx="518.26" cy="304.21" r="4.41" shape-rendering="crispEdges"/>
  </g>
  <g class="cls-7">
    <circle class="cls-6" cx="427.15" cy="339.24" r="2.2" shape-rendering="crispEdges"/>
  </g>
  <g class="cls-17">
    <circle class="cls-6" cx="352.41" cy="287.65" r="2.2" shape-rendering="crispEdges"/>
  </g>
  <g class="cls-22">
    <circle class="cls-6" cx="462.02" cy="135.45" r="4.41" shape-rendering="crispEdges"/>
  </g>
  <g class="cls-19">
    <circle class="cls-6" cx="471.95" cy="234.1" r="2.2" shape-rendering="crispEdges" transform="translate(-16.83 37.54) rotate(-4.48)"/>
  </g>
  <path class="cls-2" d="m570.39,123.92c-26.85-15.42-59.13-23.25-93.2-20.58-78.37,6.13-138.78,65.65-142.75,136.77-1.23-5.58-2.09-11.29-2.55-17.13-5.6-71.56,51.17-134.36,126.8-140.28,43.77-3.43,84.27,12.95,111.7,41.23Z"/>
  <path class="cls-18" d="m687.24,274.07c-.16,0-.33,0-.49-.02-3.3-.27-5.76-3.16-5.5-6.46,1.59-19.65,11.54-70.04,37.85-120.11,1.54-2.93,5.17-4.06,8.1-2.52,2.93,1.54,4.06,5.17,2.52,8.1-25.41,48.35-34.99,96.69-36.51,115.49-.25,3.14-2.88,5.52-5.97,5.52Z"/>
  <circle class="cls-18" cx="729.96" cy="136.58" r="22.03" transform="translate(-8.43 57.37) rotate(-4.48)"/>
  <circle class="cls-1" cx="729.96" cy="136.57" r="8.81"/>
  <path class="cls-20" d="m806.99,430.26c-10.49,8.24-34.82,31.73-48.19,59.76"/>
  <path class="cls-20" d="m764.91,720.93c21.22-13.58,65.08-52.55,70.8-99.85"/>
  <path class="cls-20" d="m619.44,727.95c15.9-4.46,51.5-20.62,66.67-49.52"/>
  <path class="cls-20" d="m207.32,228.31c16.44-10.84,54.99-42.44,77.67-82.12"/>
  <path class="cls-11" d="m508.77,487.95c-6.31,2.98-11.69,7.43-15.81,13.11-3.63-4.22-8.34-7.2-13.22-8.39,4.97-7.59,11.66-13.62,19.64-17.7,7.98-4.08,17.07-6.12,26.7-6,9.63.12,19.6,2.4,29.26,6.7,2.45,1.09,4.86,2.3,7.23,3.63.06-.04.11-.08.17-.11,2.18-1.38,4.86-1.94,7.7-1.59,2.84.34,5.71,1.57,8.24,3.52,2.54,1.95,4.63,4.54,6.01,7.45,1.38,2.9,1.99,5.99,1.76,8.87-.24,2.88-1.31,5.41-3.09,7.29-1.78,1.88-4.18,3.02-6.9,3.26-1.81.17-3.71-.06-5.6-.67-1.89-.61-3.73-1.59-5.41-2.89-1.69-1.3-3.18-2.88-4.41-4.66-1.22-1.78-2.15-3.73-2.73-5.73-.22-.78-.39-1.56-.51-2.34-1.76-.96-3.54-1.84-5.34-2.64-7.51-3.32-15.25-5.14-22.76-5.32-7.5-.19-14.62,1.25-20.93,4.22Zm-15.34,23.91c.83,2.86.91,5.74.23,8.28l4.38,5.14c-1.7,3.85-4.73,6.67-8.62,8l-4.33-5.08c-1.21.22-2.48.25-3.78.09-2.84-.34-5.71-1.56-8.24-3.52-2.54-1.95-4.63-4.54-6.01-7.44-1.38-2.9-1.99-5.99-1.76-8.86.24-2.88,1.31-5.42,3.09-7.3s4.18-3.02,6.9-3.27c1.81-.17,3.71.06,5.6.67,1.89.61,3.73,1.59,5.41,2.89,1.68,1.3,3.18,2.88,4.41,4.66,1.22,1.78,2.15,3.73,2.73,5.73Zm-4.01,21.42l36.82,43.2,11.11,13.04,3.19-14.36,3.98-17.9,13.81,16.2,11.1,13.04,3.19-14.36,5.35-24.09,19.59-1.8c-.42-2.29-.97-4.59-1.63-6.88-.66-2.29-1.44-4.57-2.33-6.82l-26.73,2.46-.55,2.5-4.8,21.59-13.81-16.21-11.11-13.04-3.18,14.36-3.98,17.9-31.38-36.83c-1.7,3.85-4.73,6.67-8.62,8Zm106.5,6.1c.66,2.29,1.2,4.59,1.63,6.88l13.15-1.21-3.96-13.7-13.15,1.21c.89,2.25,1.67,4.53,2.33,6.82Zm10.82-8.03l.2-.02c.83,2.24,1.59,4.52,2.26,6.82,11.99,41.51-8.69,77.96-46.22,81.41-37.52,3.45-77.66-27.41-89.65-68.92-2.13-7.36-3.28-14.77-3.39-21.99,4.23,3.46,9.18,5.41,13.93,5.47.39,4.93,1.4,10.6,2.75,15.29,9.64,33.39,41.93,58.22,72.12,55.45,28.1-2.58,44.45-28.16,38.81-58.61l13.15-1.21-3.96-13.7Z"/>
</svg>